<svg width="170" height="55" viewBox="0 0 170 55" fill="none" xmlns="http://www.w3.org/2000/svg">
<g clip-path="url(#clip0_2281_26)">
<path d="M27.5 55C42.6878 55 55 42.6878 55 27.5C55 12.3122 42.6878 0 27.5 0C12.3122 0 0 12.3122 0 27.5C0 42.6878 12.3122 55 27.5 55Z" fill="#D43843"/>
<path d="M27.5001 48.7924C39.2596 48.7924 48.7925 39.2595 48.7925 27.5C48.7925 15.7405 39.2596 6.20754 27.5001 6.20754C15.7406 6.20754 6.20764 15.7405 6.20764 27.5C6.20764 39.2595 15.7406 48.7924 27.5001 48.7924Z" fill="#0E1437"/>
<path d="M15.3652 24.5528L10.8825 29.0356C10.7418 29.1763 10.7418 29.4045 10.8825 29.5452L15.3652 34.0279C15.506 34.1687 15.7341 34.1687 15.8749 34.0279L20.3576 29.5452C20.4983 29.4045 20.4983 29.1763 20.3576 29.0356L15.8749 24.5528C15.7341 24.4121 15.506 24.4121 15.3652 24.5528Z" fill="#D43843"/>
<path d="M30.3446 19.049L25.8603 14.5646C25.8272 14.5309 25.7877 14.504 25.7441 14.4857C25.7006 14.4674 25.6538 14.458 25.6065 14.458C25.5592 14.458 25.5124 14.4674 25.4689 14.4857C25.4253 14.504 25.3858 14.5309 25.3527 14.5646L20.8684 19.049C20.8346 19.0821 20.8078 19.1216 20.7895 19.1651C20.7711 19.2087 20.7617 19.2555 20.7617 19.3028C20.7617 19.35 20.7711 19.3968 20.7895 19.4404C20.8078 19.484 20.8346 19.5235 20.8684 19.5566L25.3527 24.0409C25.4191 24.1087 25.4562 24.1998 25.4562 24.2947C25.4562 24.3896 25.4191 24.4807 25.3527 24.5485L20.8684 29.0354C20.8346 29.0685 20.8078 29.1079 20.7895 29.1515C20.7711 29.1951 20.7617 29.2419 20.7617 29.2892C20.7617 29.3364 20.7711 29.3832 20.7895 29.4268C20.8078 29.4704 20.8346 29.5099 20.8684 29.5429L25.3527 34.0273C25.4202 34.0943 25.5114 34.1318 25.6065 34.1318C25.7016 34.1318 25.7928 34.0943 25.8603 34.0273L30.3446 29.5429C30.4125 29.4766 30.5036 29.4395 30.5984 29.4395C30.6933 29.4395 30.7844 29.4766 30.8522 29.5429L35.3366 34.0273C35.4041 34.0943 35.4953 34.1318 35.5904 34.1318C35.6854 34.1318 35.7766 34.0943 35.8441 34.0273L40.3285 29.5429C40.3623 29.5099 40.3891 29.4704 40.4074 29.4268C40.4257 29.3832 40.4351 29.3364 40.4351 29.2892C40.4351 29.2419 40.4257 29.1951 40.4074 29.1515C40.3891 29.1079 40.3623 29.0685 40.3285 29.0354L35.8467 24.551C35.7803 24.4832 35.7432 24.3921 35.7432 24.2972C35.7432 24.2024 35.7803 24.1113 35.8467 24.0435L40.331 19.5591C40.3648 19.526 40.3916 19.4865 40.4099 19.443C40.4282 19.3994 40.4377 19.3526 40.4377 19.3053C40.4377 19.258 40.4282 19.2113 40.4099 19.1677C40.3916 19.1241 40.3648 19.0846 40.331 19.0515L35.8467 14.5646C35.8136 14.5309 35.7741 14.504 35.7305 14.4857C35.6869 14.4674 35.6402 14.458 35.5929 14.458C35.5456 14.458 35.4988 14.4674 35.4553 14.4857C35.4117 14.504 35.3722 14.5309 35.3391 14.5646L30.8547 19.049C30.7868 19.1161 30.6952 19.1537 30.5997 19.1537C30.5042 19.1537 30.4126 19.1161 30.3446 19.049Z" fill="#D43843"/>
<path d="M25.3514 34.5392L20.8687 39.0219C20.728 39.1627 20.728 39.3909 20.8687 39.5316L25.3514 44.0143C25.4922 44.155 25.7203 44.155 25.8611 44.0143L30.3438 39.5316C30.4845 39.3909 30.4845 39.1627 30.3438 39.0219L25.8611 34.5392C25.7203 34.3985 25.4922 34.3985 25.3514 34.5392Z" fill="#D43843"/>
<path d="M64.7833 11.9532C64.7833 11.875 64.7988 11.7976 64.8288 11.7254C64.8588 11.6532 64.9027 11.5876 64.9582 11.5324C65.0136 11.4772 65.0793 11.4335 65.1517 11.4038C65.224 11.3741 65.3015 11.359 65.3797 11.3594H78.1501C78.2283 11.359 78.3058 11.3741 78.3782 11.4038C78.4505 11.4335 78.5163 11.4772 78.5717 11.5324C78.6271 11.5876 78.6711 11.6532 78.7011 11.7254C78.7311 11.7976 78.7465 11.875 78.7465 11.9532V14.5266C78.7465 14.6848 78.6837 14.8364 78.5718 14.9483C78.46 15.0601 78.3083 15.123 78.1501 15.123H68.8616V21.0209H76.6122C76.7687 21.026 76.9175 21.0904 77.0283 21.2012C77.139 21.312 77.2035 21.4607 77.2086 21.6173V24.1907C77.2029 24.347 77.1383 24.4955 77.0276 24.6061C76.917 24.7167 76.7685 24.7814 76.6122 24.7871H68.8616V32.7229C68.8566 32.879 68.7925 33.0274 68.6822 33.1381C68.572 33.2488 68.4239 33.3136 68.2678 33.3193H65.3797C65.2215 33.3193 65.0698 33.2564 64.958 33.1446C64.8462 33.0327 64.7833 32.881 64.7833 32.7229V11.9532Z" fill="#E9E9E9"/>
<path d="M82.4799 11.9532C82.4856 11.7971 82.5503 11.649 82.661 11.5387C82.7717 11.4285 82.9201 11.3644 83.0763 11.3594H85.9948C86.1507 11.3644 86.2988 11.4286 86.4091 11.5389C86.5193 11.6492 86.5835 11.7973 86.5886 11.9532V32.7229C86.5836 32.879 86.5195 33.0274 86.4092 33.1381C86.299 33.2488 86.1509 33.3135 85.9948 33.3193H83.0763C82.9197 33.3142 82.7709 33.2497 82.6602 33.139C82.5494 33.0282 82.4849 32.8794 82.4799 32.7229V11.9532Z" fill="#E9E9E9"/>
<path d="M92.2985 11.9532C92.304 11.7988 92.3673 11.652 92.4759 11.5421C92.5845 11.4321 92.7304 11.3669 92.8847 11.3594H95.8032C95.9594 11.3644 96.1078 11.4285 96.2185 11.5387C96.3292 11.649 96.3939 11.7971 96.3996 11.9532V32.7229C96.3946 32.8794 96.3301 33.0282 96.2193 33.139C96.1086 33.2497 95.9598 33.3142 95.8032 33.3193H92.8847C92.7284 33.3136 92.5799 33.2489 92.4693 33.1383C92.3587 33.0277 92.294 32.8792 92.2883 32.7229L92.2985 11.9532Z" fill="#E9E9E9"/>
<path d="M109.053 11.9532C109.059 11.7971 109.124 11.649 109.235 11.5387C109.345 11.4285 109.494 11.3644 109.65 11.3594H112.566C112.722 11.3644 112.87 11.4285 112.981 11.5387C113.092 11.649 113.157 11.7971 113.162 11.9532V32.7229C113.157 32.8794 113.093 33.0282 112.982 33.139C112.871 33.2497 112.722 33.3142 112.566 33.3193H109.65C109.493 33.3142 109.345 33.2497 109.234 33.139C109.123 33.0282 109.059 32.8794 109.053 32.7229V11.9532Z" fill="#E9E9E9"/>
<path d="M121.816 15.123H117.022C116.864 15.123 116.712 15.0601 116.601 14.9483C116.489 14.8364 116.426 14.6848 116.426 14.5266V11.9532C116.426 11.875 116.441 11.7976 116.471 11.7254C116.501 11.6532 116.545 11.5876 116.601 11.5324C116.656 11.4772 116.722 11.4335 116.794 11.4038C116.867 11.3741 116.944 11.359 117.022 11.3594H130.727C130.805 11.359 130.882 11.3741 130.955 11.4038C131.027 11.4335 131.093 11.4772 131.148 11.5324C131.204 11.5876 131.248 11.6532 131.278 11.7254C131.308 11.7976 131.323 11.875 131.323 11.9532V14.5266C131.323 14.6848 131.26 14.8364 131.148 14.9483C131.036 15.0601 130.885 15.123 130.727 15.123H125.933V32.7229C125.927 32.8792 125.862 33.0277 125.752 33.1383C125.641 33.2489 125.493 33.3136 125.336 33.3193H122.418C122.261 33.3142 122.112 33.2497 122.002 33.139C121.891 33.0282 121.826 32.8794 121.821 32.7229L121.816 15.123Z" fill="#E9E9E9"/>
<path d="M141.495 14.151C141.491 13.8686 141.544 13.5885 141.65 13.3266C141.756 13.0648 141.912 12.8264 142.11 12.6252C142.308 12.424 142.544 12.264 142.804 12.1543C143.065 12.0447 143.344 11.9875 143.626 11.9862C144.2 11.9862 144.751 12.2143 145.157 12.6202C145.563 13.0262 145.791 13.5768 145.791 14.151C145.791 14.7251 145.563 15.2757 145.157 15.6817C144.751 16.0877 144.2 16.3157 143.626 16.3157C143.344 16.3144 143.065 16.2573 142.804 16.1476C142.544 16.038 142.308 15.8779 142.11 15.6767C141.912 15.4756 141.756 15.2372 141.65 14.9753C141.544 14.7135 141.491 14.4333 141.495 14.151ZM141.776 21.366C141.776 21.2079 141.839 21.0562 141.951 20.9443C142.063 20.8325 142.214 20.7697 142.373 20.7697H144.976C145.135 20.7697 145.286 20.8325 145.398 20.9443C145.51 21.0562 145.573 21.2079 145.573 21.366V32.7229C145.568 32.8794 145.503 33.0282 145.393 33.139C145.282 33.2497 145.133 33.3142 144.976 33.3193H142.373C142.216 33.3142 142.067 33.2497 141.957 33.139C141.846 33.0282 141.781 32.8794 141.776 32.7229V21.366Z" fill="#E9E9E9"/>
<path d="M138.137 23.7059C138.391 23.7059 138.571 23.9876 138.571 24.3023V26.9011C138.571 27.2132 138.388 27.4949 138.137 27.4949H129.869C129.64 27.4949 129.435 27.2132 129.435 26.9011V24.3023C129.435 23.9876 129.64 23.7059 129.869 23.7059H138.137Z" fill="#E9E9E9"/>
<path d="M148.646 31.8143L149.494 30.1191C149.52 30.0507 149.561 29.9891 149.614 29.9391C149.667 29.8891 149.731 29.852 149.801 29.8306C149.871 29.8093 149.945 29.8043 150.017 29.816C150.089 29.8278 150.158 29.8559 150.217 29.8983C151.104 30.3528 152.077 30.6124 153.072 30.6596C153.699 30.6596 154.138 30.4058 154.138 29.8754C154.138 29.345 153.699 28.9669 152.037 28.307C149.621 27.3655 148.484 26.0788 148.484 24.1653C148.484 22.2518 149.895 20.4626 153.095 20.4626C154.945 20.4626 156.295 20.9981 156.953 21.4371C157.096 21.5182 157.204 21.6493 157.256 21.8053C157.309 21.9612 157.302 22.1311 157.237 22.2822L156.453 23.8836C156.374 24.006 156.253 24.0958 156.113 24.1364C155.973 24.1769 155.823 24.1656 155.691 24.1044C155.691 24.1044 154.28 23.4446 153.087 23.4446C152.326 23.4446 152.022 23.7592 152.022 24.1653C152.022 24.7312 152.585 24.9266 153.745 25.3885C156.161 26.3301 157.98 27.3655 157.98 29.812C157.98 31.8829 156.161 33.6416 152.993 33.6416C150.923 33.6416 149.479 32.9817 148.821 32.4793C148.719 32.4063 148.646 32.2999 148.614 32.1784C148.582 32.057 148.593 31.9282 148.646 31.8143Z" fill="#E9E9E9"/>
<path d="M161.406 24.0638H160.34C160.187 24.0578 160.042 23.9921 159.936 23.8807C159.83 23.7693 159.772 23.621 159.774 23.4674V21.366C159.771 21.2894 159.783 21.2128 159.81 21.1409C159.837 21.069 159.878 21.0033 159.931 20.9476C159.984 20.8919 160.047 20.8475 160.117 20.8169C160.188 20.7863 160.264 20.7703 160.34 20.7697H161.406V17.2877C161.411 17.1312 161.476 16.9824 161.587 16.8717C161.697 16.7609 161.846 16.6964 162.003 16.6913L164.576 16.6609C164.731 16.6649 164.878 16.7297 164.985 16.8414C165.093 16.953 165.152 17.1024 165.15 17.2573V20.7697H167.911C167.99 20.7661 168.07 20.779 168.144 20.8077C168.218 20.8363 168.286 20.8801 168.342 20.9361C168.399 20.9921 168.443 21.0593 168.472 21.1333C168.502 21.2073 168.515 21.2865 168.512 21.366V23.4674C168.512 23.6255 168.449 23.7772 168.338 23.8891C168.226 24.0009 168.074 24.0638 167.916 24.0638H165.15V29.0836C165.15 29.9617 165.622 30.0987 166.122 30.0987C166.649 30.0641 167.168 29.9476 167.66 29.7536C167.727 29.7211 167.8 29.7045 167.875 29.705C167.949 29.7055 168.023 29.7231 168.09 29.7565C168.156 29.7898 168.214 29.838 168.259 29.8973C168.305 29.9567 168.336 30.0256 168.35 30.0987L168.977 32.0732C169.008 32.1455 169.023 32.2234 169.022 32.3021C169.022 32.3807 169.005 32.4583 168.972 32.53C168.94 32.6016 168.893 32.6657 168.834 32.7181C168.775 32.7706 168.706 32.8102 168.632 32.8345C168.474 32.9284 166.436 33.6517 164.898 33.6517C162.482 33.6517 161.416 32.1442 161.416 29.5912L161.406 24.0638Z" fill="#E9E9E9"/>
<path d="M66.9482 41.7931L64.9966 35.8723H66.065L67.5065 40.41L68.9556 35.8723H69.9327L67.9684 41.7931V45.0923H66.9533L66.9482 41.7931Z" fill="#D43843"/>
<path d="M71.7346 38.1005C71.7346 36.6895 72.4325 35.781 73.8436 35.781C75.2546 35.781 75.9652 36.6895 75.9652 38.1005V42.8742C75.9652 44.2726 75.2673 45.1938 73.8436 45.1938C72.4198 45.1938 71.7346 44.2726 71.7346 42.8742V38.1005ZM72.7498 42.9224C72.7498 43.765 73.1051 44.2548 73.8436 44.2548C74.5821 44.2548 74.9374 43.765 74.9374 42.9224V38.0472C74.9374 37.2174 74.5948 36.7174 73.8436 36.7174C73.0924 36.7174 72.7498 37.225 72.7498 38.0472V42.9224Z" fill="#D43843"/>
<path d="M79.2615 42.9275C79.2615 43.7574 79.5914 44.2599 80.3426 44.2599C81.0938 44.2599 81.411 43.7523 81.411 42.9275V35.8723H82.3729V42.8742C82.3729 44.2726 81.7282 45.209 80.3045 45.209C78.8808 45.209 78.2463 44.2726 78.2463 42.8742V35.8723H79.2615V42.9275Z" fill="#D43843"/>
<path d="M86.794 35.8723C88.2457 35.8723 88.8497 36.6108 88.8497 37.9813V38.7426C88.8497 39.7577 88.4944 40.3897 87.7026 40.6409C88.5477 40.8947 88.8649 41.5774 88.8649 42.5646V44.0035C88.8346 44.3818 88.8973 44.7617 89.0476 45.11H88.0071C87.8611 44.7561 87.8019 44.3723 87.8345 43.9909V42.5392C87.8345 41.4962 87.3473 41.1688 86.492 41.1688H85.7662V45.11H84.7358V35.8723H86.794ZM86.5402 40.2247C87.3574 40.2247 87.8447 39.9709 87.8447 38.9558V38.0675C87.8447 37.2377 87.5427 36.7986 86.7788 36.7986H85.7763V40.2247H86.5402Z" fill="#D43843"/>
<path d="M97.8133 40.1714V41.113H95.6916V45.1075H94.6613V35.8723H98.3259V36.7986H95.6916V40.1613L97.8133 40.1714Z" fill="#D43843"/>
<path d="M101.513 35.8723V45.1024H100.498V35.8723H101.513Z" fill="#D43843"/>
<path d="M105.978 35.8723C107.427 35.8723 108.033 36.6108 108.033 37.9813V38.7426C108.033 39.7577 107.678 40.3897 106.886 40.6409C107.731 40.8947 108.046 41.5774 108.046 42.5646V44.0035C108.016 44.382 108.08 44.7619 108.231 45.11H107.191C107.045 44.7561 106.985 44.3723 107.018 43.9909V42.5392C107.018 41.4962 106.531 41.1688 105.673 41.1688H104.947V45.11H103.932V35.8723H105.978ZM105.724 40.2247C106.541 40.2247 107.028 39.9709 107.028 38.9558V38.0675C107.028 37.2377 106.726 36.7986 105.96 36.7986H104.945V40.2247H105.724Z" fill="#D43843"/>
<path d="M114.457 38.0878V38.3416H113.482V38.0371C113.482 37.2072 113.165 36.72 112.426 36.72C111.688 36.72 111.373 37.2072 111.373 38.0244C111.373 40.0953 114.472 40.2932 114.472 42.8894C114.472 44.2878 113.799 45.1963 112.388 45.1963C110.977 45.1963 110.317 44.2878 110.317 42.8894V42.3616H111.279V42.9427C111.279 43.7726 111.622 44.2624 112.36 44.2624C113.099 44.2624 113.441 43.7726 113.441 42.9427C113.441 40.8871 110.355 40.6891 110.355 38.0904C110.355 36.6667 111.015 35.7835 112.401 35.7835C113.787 35.7835 114.457 36.6895 114.457 38.0878Z" fill="#D43843"/>
<path d="M118.042 45.1024V36.7986H116.34V35.8622H120.758V36.7986H119.058V45.0923L118.042 45.1024Z" fill="#D43843"/>
<path d="M130.264 38.1005V38.933H129.287V38.0472C129.287 37.2174 128.957 36.7174 128.206 36.7174C127.455 36.7174 127.125 37.225 127.125 38.0472V42.9275C127.125 43.7574 127.468 44.2599 128.206 44.2599C128.945 44.2599 129.287 43.7523 129.287 42.9275V41.7271H130.264V42.8742C130.264 44.2726 129.605 45.1938 128.181 45.1938C126.757 45.1938 126.11 44.2726 126.11 42.8742V38.1005C126.11 36.7047 126.77 35.781 128.181 35.781C129.592 35.781 130.264 36.7047 130.264 38.1005Z" fill="#D43843"/>
<path d="M132.546 45.1024V35.8723H133.574V44.1584H136.211V45.0948L132.546 45.1024Z" fill="#D43843"/>
<path d="M139.376 43.2422L139.02 45.1024H138.071L139.848 35.8723H141.337L143.114 45.1024H142.086L141.728 43.2422H139.376ZM139.508 42.359H141.563L140.523 37.0296L139.508 42.359Z" fill="#D43843"/>
<path d="M149.237 38.0878V38.3416H148.263V38.0371C148.263 37.2072 147.946 36.72 147.207 36.72C146.469 36.72 146.151 37.2072 146.151 38.0244C146.151 40.0953 149.25 40.2932 149.25 42.8894C149.25 44.2878 148.58 45.1963 147.169 45.1963C145.758 45.1963 145.098 44.2878 145.098 42.8894V42.3616H146.06V42.9427C146.06 43.7726 146.403 44.2624 147.141 44.2624C147.88 44.2624 148.222 43.7726 148.222 42.9427C148.222 40.8871 145.136 40.6891 145.136 38.0904C145.136 36.6667 145.796 35.7835 147.182 35.7835C148.567 35.7835 149.237 36.6895 149.237 38.0878Z" fill="#D43843"/>
<path d="M155.488 38.0878V38.3416H154.514V38.0371C154.514 37.2072 154.197 36.72 153.458 36.72C152.72 36.72 152.402 37.2072 152.402 38.0244C152.402 40.0953 155.501 40.2932 155.501 42.8894C155.501 44.2878 154.829 45.1963 153.417 45.1963C152.006 45.1963 151.349 44.2878 151.349 42.8894V42.3616H152.311V42.9427C152.311 43.7726 152.654 44.2624 153.392 44.2624C154.131 44.2624 154.473 43.7726 154.473 42.9427C154.473 40.8871 151.387 40.6891 151.387 38.0904C151.387 36.6667 152.047 35.7835 153.43 35.7835C154.813 35.7835 155.488 36.6895 155.488 38.0878Z" fill="#D43843"/>
<path d="M163.437 36.7174C162.881 36.7174 162.723 37.0321 162.675 37.7326L162.594 39.2223C162.569 39.7755 162.437 40.3034 161.739 40.4912C162.437 40.6739 162.569 41.2018 162.594 41.7601L162.675 43.2498C162.713 43.9503 162.871 44.2649 163.437 44.2649H163.69V45.1075H163.084C162.254 45.1075 161.833 44.5999 161.767 43.6965L161.66 41.8997C161.622 41.2525 161.515 40.9759 160.871 40.9226V40.0521C161.515 39.9988 161.632 39.7222 161.66 39.0776L161.754 37.2834C161.82 36.3875 162.241 35.8723 163.071 35.8723H163.678V36.7174H163.437Z" fill="#6D6E71"/>
<path d="M166.261 35.8723C167.078 35.8723 167.512 36.3799 167.566 37.2834L167.672 39.0776C167.71 39.7222 167.804 39.9988 168.449 40.0521V40.9226C167.804 40.9759 167.71 41.2525 167.672 41.8997L167.566 43.6914C167.512 44.5872 167.078 45.1024 166.261 45.1024H165.655V44.2599H165.908C166.464 44.2599 166.622 43.9426 166.67 43.2447L166.748 41.755C166.774 41.2018 166.893 40.6739 167.606 40.4861C166.893 40.3008 166.774 39.773 166.748 39.2172L166.67 37.7275C166.629 37.027 166.472 36.7123 165.908 36.7123H165.655V35.8672L166.261 35.8723Z" fill="#6D6E71"/>
</g>
<defs>
<clipPath id="clip0_2281_26">
<rect width="170" height="55" fill="white"/>
</clipPath>
</defs>
</svg>
