<svg width="58" height="53" viewBox="0 0 58 53" fill="none" xmlns="http://www.w3.org/2000/svg">
<path d="M46.3466 51.8541C46.2041 51.6084 46.0626 51.3627 45.9181 51.123C43.0444 46.8596 38.946 43.7037 35.3454 39.3366C33.0088 36.1127 29.3322 33.3392 26.3833 30.6704C32.8076 37.5077 40.368 43.9625 44.9622 51.9604C43.5604 52.0005 42.1721 51.7887 41.2277 50.934C39.2406 48.6188 37.1967 46.4083 35.1095 44.2709C35.4186 43.9912 36.0222 43.4449 36.3255 43.1696C29.0867 38.2823 25.6381 30.7244 17.787 26.3904C17.8477 26.7424 17.4655 26.8478 17.221 26.9846C23.7367 32.3407 29.2551 37.8701 34.8698 44.0278C25.8028 34.783 15.9107 26.9106 6.02821 17.9664C5.60749 17.5865 4.76413 16.8232 4.34342 16.4416C3.57708 14.0846 2.19748 12.2819 0.512695 10.757C2.46608 9.75239 3.84376 5.45413 6.60296 9.05968C6.9091 8.7826 7.5214 8.22844 7.82755 7.95049C5.98776 3.51368 9.01268 -1.51302 13.6097 0.429173C18.6256 2.75213 22.4573 8.43755 27.7032 12.0771C31.3809 14.8505 35.0585 17.6248 37.8158 21.2286C41.53 26.2545 46.8934 30.5536 50.3015 35.8565C51.6811 37.6593 55.5493 39.4969 55.4743 41.0914C55.6389 42.0377 55.0112 42.6503 54.1909 43.2253C51.529 40.6192 48.8006 38.0897 46.2031 35.4975C43.1965 32.1551 40.2274 28.7778 37.4894 25.1958C39.9232 28.9199 42.9597 32.2588 46.2031 35.4975C48.6494 38.2161 51.1208 40.9137 53.518 43.6775C52.793 44.1533 52.045 44.656 51.606 45.354C51.606 45.354 52.4484 46.1164 52.87 46.498C53.0241 49.41 50.4565 50.9688 48.0843 51.5936C47.5577 51.6816 46.9656 51.78 46.3466 51.8541Z" fill="#DB6B71"/>
<path d="M57.2938 10.9338C57.0223 11.0628 56.7508 11.1908 56.4861 11.3215C51.7754 13.9224 48.2884 17.6326 43.4632 20.8905C39.9011 23.0061 36.8367 26.3328 33.8878 29.0016C41.4424 23.1873 48.5743 16.3447 57.4122 12.1868C57.4555 13.4554 57.2216 14.7119 56.2772 15.5666C53.7192 17.3651 51.2767 19.2149 48.9151 21.1039C48.6061 20.8251 48.0025 20.2779 47.6982 20.0026C42.2973 26.555 33.9475 29.6761 29.1588 36.7817C29.5478 36.7268 29.6633 37.0728 29.8154 37.2941C35.7343 31.3969 41.8429 26.4025 48.6465 21.3209C38.4319 29.5279 29.7336 38.48 19.8511 47.4241C19.4304 47.8049 18.588 48.5682 18.1664 48.949C15.5622 49.6425 13.5693 50.8912 11.8855 52.416C10.7745 50.6481 6.02627 49.4012 10.0101 46.904C9.70392 46.6278 9.09066 46.0727 8.78451 45.7956C3.88226 47.4607 -1.67176 44.723 0.474177 40.5624C3.04083 36.0228 9.32171 32.5558 13.344 27.8071C16.4084 24.4786 19.4728 21.151 23.4556 18.6546C29.0096 15.2922 33.7588 10.4389 39.618 7.35437C41.6099 6.10489 43.6413 2.60477 45.4031 2.67273C46.4486 2.52373 47.1244 3.09184 47.7589 3.83422C44.8813 6.24344 42.0855 8.71191 39.2214 11.0636C35.5283 13.7848 31.7958 16.472 27.8389 18.95C31.9537 16.7473 35.6429 14 39.2214 11.0636C42.2251 8.85045 45.2057 6.61288 48.2595 4.44415C48.7852 5.10025 49.3416 5.77639 50.1128 6.17372C50.1128 6.17372 50.9552 5.41132 51.3759 5.03055C54.5933 4.89114 56.3157 7.21409 57.0059 9.36105C57.1022 9.83679 57.212 10.3735 57.2938 10.9338Z" fill="#DB6B71"/>
</svg>
